<svg xmlns="http://www.w3.org/2000/svg" version="1.1" xmlns:xlink="http://www.w3.org/1999/xlink" xmlns:svgjs="http://svgjs.com/svgjs" width="1440" height="560" preserveAspectRatio="none" viewBox="0 0 1440 560">
    <g mask="url(&quot;#SvgjsMask1002&quot;)" fill="none">
        <path d="M0 0C0 0 0 0 0 0C70 0 70 0 140 0C210 0 210 0 280 0C350 0 350 0 420 0C490 0 490 0 560 0C630 0 630 0 700 0C721.72 0 731.99 -15.54 743.45 0C783.61 54.46 767.26 74.12 803.25 140C815.54 162.49 817.32 176.75 840 176.75C890.14 176.75 942.54 176.88 948.89 140C957.76 88.5 861.19 41.6 870.43 0C876.74 -28.4 925.21 0 980 0C1050 0 1050 0 1120 0C1190 0 1190 0 1260 0C1321.89 0 1324.06 -5.9 1383.77 0C1394.06 1.02 1389.68 12.67 1400 13.83C1467.79 21.42 1502.66 -16.15 1540 17.5C1572.66 46.93 1540 78.75 1540 140C1540 210 1540 210 1540 280C1540 328.64 1568.03 349.74 1540 377.29C1498.03 418.54 1470.13 397.98 1400 417.59C1393.76 419.33 1387.27 413.99 1387.27 420C1387.27 485.2 1431.88 524.93 1400 560C1368.25 594.93 1330 560 1260 560C1216.39 560 1209 576.02 1172.79 560C1139 545.06 1154.92 503.82 1120 498.08C1058.53 487.97 1046.85 505.97 980 528.3C954.15 536.93 960.44 554.15 934.59 560C890.44 570 887.3 560 840 560C770 560 770 560 700 560C630 560 630 560 560 560C490 560 490 560 420 560C350 560 350 560 280 560C210 560 210 560 140 560C70 560 35 595 0 560C-35 525 0 490 0 420C0 350 0 350 0 280C0 210 0 210 0 140C0 70 0 70 0 0" stroke="rgba(245, 146, 41, 1)" stroke-width="2"></path>
        <path d="M1260 133.44C1255.48 133.44 1250 136.88 1250 140C1250 143 1255.4 145.68 1260 145.68C1263.17 145.68 1265.53 142.94 1265.53 140C1265.53 136.82 1263.24 133.44 1260 133.44" stroke="rgba(245, 146, 41, 1)" stroke-width="2"></path>
        <path d="M280 234.1C254.48 239.67 245 256.84 245 280C245 303.93 258.63 307.77 280 328.28C331.55 377.77 335.58 373.94 390.83 420C405.58 432.3 404.14 445 420 445C441.31 445 454.84 441.79 465.16 420C493.91 359.29 512.21 335.52 498.14 280C489.63 246.43 461.75 250.61 420 241.82C352.68 227.66 341.98 220.58 280 234.1" stroke="rgba(245, 146, 41, 1)" stroke-width="2"></path>
        <path d="M980 216.36C974.35 216.36 969.06 249.44 969.06 280C969.06 288.87 974.41 295.22 980 295.22C985.72 295.22 991.67 289.02 991.67 280C991.67 249.59 985.66 216.36 980 216.36" stroke="rgba(245, 146, 41, 1)" stroke-width="2"></path>
        <path d="M155.56 140C189.4 73.75 171.7 49.14 215.38 0C233.92 -20.86 247.69 0 280 0C350 0 350 0 420 0C442.4 0 453.05 -15.97 464.8 0C504.56 54.03 535.51 83.66 523.02 140C513.11 184.69 475.66 193.64 420 202.05C354.15 212 337.18 156.34 280 176.72C227.8 195.32 239.66 227.66 201.25 280C169.66 323.05 173.1 325.78 140 367.5C117.56 395.78 90.17 394.48 90.17 420C90.17 444.07 112.06 466.67 140 466.67C180.21 466.67 183.56 443.92 226.47 420C253.56 404.89 254.5 388.62 280 388.62C300.23 388.62 299.16 404.07 317.92 420C369.16 463.51 360.73 484.65 420 507.5C481.77 531.31 514.93 539.52 560 513.33C590.21 495.77 566.25 466.76 570.57 420C577.02 350.09 574 349.78 581.54 280C589.13 209.78 570.81 199.61 600.83 140C630.04 82.01 656.33 44.8 700 44.8C735.66 44.8 724.74 96.38 759.5 140C794.74 184.23 797.84 182.39 840 220.5C875.28 252.39 882.28 245.42 914.38 280C952.28 320.82 946.48 371.3 980 371.3C1014.29 371.3 1031.85 332.09 1050 280C1072.15 216.44 1081.93 194.91 1060.61 140C1046.93 104.76 1012.21 129.34 980 99.7C936.15 59.34 908.48 31.49 908.48 0C908.48 -18.36 944.24 0 980 0C1050 0 1050 0 1120 0C1190 0 1190 0 1260 0C1296.52 0 1301.28 -12.94 1333.04 0C1371.28 15.58 1360.08 45.23 1400 57.04C1463.56 75.85 1495.19 34.7 1540 61.25C1565.19 76.18 1540 100.63 1540 140C1540 210 1540 210 1540 280C1540 298.99 1554.49 309.97 1540 317.97C1484.49 348.59 1470.62 340.19 1400 357.24C1330.62 373.99 1329.19 368.24 1260 385.57C1203.92 399.62 1204.54 402.22 1149.47 420C1134.54 424.82 1135.2 426.98 1120 430.77C1050.47 448.11 1047.17 465.63 980 462.26C939.84 460.25 942.21 441.89 905.33 420C872.21 400.34 868.94 379.17 840 379.17C820.72 379.17 808.89 396.17 808.89 420C808.89 486.58 867.55 524.58 840 560C813.11 594.58 770 560 700 560C630 560 630 560 560 560C490 560 490 560 420 560C350 560 350 560 280 560C210 560 210 560 140 560C70 560 35 595 0 560C-35 525 0 490 0 420C0 350 0 350 0 280C0 277.09 -2.1 276.15 0 274.17C67.9 209.94 68.75 209.02 140 147.57C146.53 141.94 151.71 147.53 155.56 140" stroke="rgba(245, 146, 41, 1)" stroke-width="2"></path>
        <path d="M1260 78.75C1217.81 78.75 1166.67 110.88 1166.67 140C1166.67 167.99 1217.1 192.97 1260 192.97C1289.56 192.97 1311.58 167.42 1311.58 140C1311.58 110.31 1290.26 78.75 1260 78.75" stroke="rgba(245, 146, 41, 1)" stroke-width="2"></path>
        <path d="M1230.16 560C1230.16 537.07 1241.74 495 1260 495C1280.61 495 1307.89 539.6 1307.89 560C1307.89 572.1 1283.95 560 1260 560C1245.08 560 1230.16 569.57 1230.16 560" stroke="rgba(245, 146, 41, 1)" stroke-width="2"></path>
        <path d="M334.78 140C334.78 116.64 383.85 76.77 420 76.77C444.95 76.77 456.98 113.1 456.98 140C456.98 155.85 440.1 162.27 420 162.27C379 162.27 334.78 159.39 334.78 140" stroke="rgba(245, 146, 41, 1)" stroke-width="2"></path>
        <path d="M673.75 140C676.71 122.96 688.44 114.8 700 114.8C709.44 114.8 705.62 129.19 715.75 140C775.62 203.92 777.06 203.03 840 264.25C849.03 273.03 859.69 270.88 859.69 280C859.69 291.88 849.93 293.19 840 306.25C796.75 363.19 793.98 361.3 753.33 420C723.98 462.38 728.42 508.42 700 508.42C670.05 508.42 642.77 469.11 636.6 420C628.41 354.9 661.85 351.04 671.28 280C680.43 211.04 662.35 205.56 673.75 140" stroke="rgba(245, 146, 41, 1)" stroke-width="2"></path>
        <path d="M980 46.67C956.87 46.67 946.52 14.74 946.52 0C946.52 -8.59 963.26 0 980 0C1033.11 0 1086.21 -11.15 1086.21 0C1086.21 12.18 1026.72 46.67 980 46.67" stroke="rgba(245, 146, 41, 1)" stroke-width="2"></path>
        <path d="M1260 24.06C1220.61 24.06 1174.44 6.13 1174.44 0C1174.44 -5.9 1217.22 0 1260 0C1271.16 0 1282.32 -4.87 1282.32 0C1282.32 7.16 1274.55 24.06 1260 24.06" stroke="rgba(245, 146, 41, 1)" stroke-width="2"></path>
        <path d="M1357.63 140C1378.16 119.46 1373.27 105.38 1400 100.25C1464.45 87.88 1483.99 89.1 1540 105C1553.99 108.97 1540 122.5 1540 140C1540 188.27 1560.39 200.31 1540 236.55C1521.01 270.31 1502.27 262.32 1461.25 280C1432.27 292.49 1430.89 289.5 1400 296.9C1330.26 313.6 1330.45 325.68 1260 328.2C1190.45 330.69 1182.82 326.88 1120 306.92C1106.98 302.78 1108.33 293.89 1108.33 280C1108.33 258.56 1101.47 241.1 1120 236.25C1177.31 221.24 1200.57 264.34 1260 240.27C1319.38 216.22 1308.16 189.47 1357.63 140" stroke="rgba(245, 146, 41, 1)" stroke-width="2"></path>
        <path d="M98.82 280C98.82 263.12 123.19 242.16 140 242.16C152.53 242.16 157.5 261.86 157.5 280C157.5 293.28 151.38 305 140 305C122.04 305 98.82 294.54 98.82 280" stroke="rgba(245, 146, 41, 1)" stroke-width="2"></path>
        <path d="M0 370.81C8.35 370.81 30.85 392.86 30.85 420C30.85 482.45 7.82 550 0 550C-7.61 550 0 485 0 420C0 395.4 -7.07 370.81 0 370.81" stroke="rgba(245, 146, 41, 1)" stroke-width="2"></path>
        <path d="M7.78 560C7.78 550.37 76.18 522.22 140 522.22C175.34 522.22 206.11 549.89 206.11 560C206.11 568.78 173.06 560 140 560C73.89 560 7.78 569.26 7.78 560" stroke="rgba(245, 146, 41, 1)" stroke-width="2"></path>
    </g>
    <defs>
        <mask id="SvgjsMask1002">
            <rect width="1440" height="560" fill="#ffffff"></rect>
        </mask>
    </defs>
</svg>