<svg xmlns="http://www.w3.org/2000/svg" width="360" height="540" viewBox="0 0 95.25 142.875"  xmlns:v="https://vecta.io/nano"><rect rx="7.923" y=".132" x=".132" height="142.611" width="94.986" fill="#fff" stroke="#000" stroke-width=".265"/><path d="M7.276 7.937L4.895 21.166h1.323l.62-3.44h2.199l.62 3.44h1.323L8.599 7.937zm.661 3.679l.86 4.787h-1.72zm78.714 123.321l-2.381-13.229h1.323l.62 3.44h2.199l.62-3.44h1.323l-2.381 13.229zm.661-3.679l.86-4.787h-1.72zM7.805 26.193c0-1.461-.756-2.381-1.852-2.381s-1.984 1.185-1.984 2.646v.372c0 .966.354 1.902.661 2.778.316.901.772 1.691 1.199 2.497l2.108 3.613 2.108-3.613c.427-.806.883-1.596 1.199-2.497.307-.876.661-1.813.661-2.778v-.372c0-1.461-.888-2.646-1.984-2.646s-1.852.92-1.852 2.381c0 .265-.265.265-.265 0zm79.375 90.488c0 1.461-.756 2.381-1.852 2.381s-1.984-1.185-1.984-2.646v-.372c0-.966.354-1.902.661-2.778.316-.901.772-1.691 1.199-2.497l2.108-3.613 2.108 3.613c.427.806.883 1.596 1.199 2.497.307.876.661 1.813.661 2.778v.372c0 1.461-.888 2.646-1.984 2.646s-1.852-.92-1.852-2.381c0-.265-.265-.265-.265 0z" fill="#f59329"/></svg>