<svg xmlns="http://www.w3.org/2000/svg" width="360" height="540" viewBox="0 0 95.25 142.875"  xmlns:v="https://vecta.io/nano"><rect rx="7.923" y=".132" x=".132" height="142.61" width="94.985" fill="#fff" stroke="#000" stroke-width=".265"/><path d="M89.958 134.938V127v-5.292h-1.323v3.969l-.794 1.852-1.852-5.821h-1.323l2.381 7.408-2.381 5.821h1.323l2.646-6.35v6.35zm-84.666-127v7.938 5.292h1.323v-3.969l.794-1.852 1.852 5.821h1.323L8.203 13.76l2.381-5.821H9.26l-2.646 6.35v-6.35zm2.513 18.256c0-1.461-.756-2.381-1.852-2.381s-1.984 1.185-1.984 2.646v.372c0 .966.354 1.902.661 2.778.316.901.772 1.691 1.199 2.497l2.108 3.613 2.108-3.613c.427-.806.883-1.596 1.199-2.497.307-.876.661-1.813.661-2.778v-.372c0-1.461-.888-2.646-1.984-2.646s-1.852.92-1.852 2.381c0 .265-.265.265-.265 0zm15.743-9.525c0-2.923-1.512-4.762-3.704-4.762s-3.969 2.369-3.969 5.292v.744c0 1.931.708 3.804 1.323 5.556.632 1.802 1.543 3.382 2.398 4.994l4.217 7.226 4.217-7.226c.854-1.612 1.766-3.192 2.398-4.994.615-1.752 1.323-3.625 1.323-5.556v-.744c0-2.923-1.777-5.292-3.969-5.292s-3.704 1.84-3.704 4.762c0 .529-.529.529-.529 0zm63.897 100.012c0 1.461.756 2.381 1.852 2.381s1.984-1.185 1.984-2.646v-.372c0-.966-.354-1.902-.661-2.778-.316-.901-.772-1.691-1.199-2.497l-2.108-3.613-2.108 3.613c-.427.806-.883 1.596-1.199 2.497-.307.876-.661 1.813-.661 2.778v.372c0 1.461.888 2.646 1.984 2.646s1.852-.92 1.852-2.381c0-.265.265-.265.265 0zm-15.743 9.525c0 2.922 1.512 4.763 3.704 4.763s3.969-2.369 3.969-5.292v-.744c0-1.931-.708-3.804-1.323-5.556-.632-1.802-1.543-3.382-2.398-4.994l-4.217-7.226-4.217 7.226c-.854 1.612-1.766 3.192-2.398 4.994-.615 1.752-1.323 3.625-1.323 5.556v.744c0 2.922 1.777 5.292 3.969 5.292s3.704-1.84 3.704-4.763c0-.529.529-.529.529 0z" fill="#f59229"/></svg>