<svg xmlns="http://www.w3.org/2000/svg" width="360" height="540" viewBox="0 0 95.25 142.875"  xmlns:v="https://vecta.io/nano"><rect width="94.985" height="142.61" x=".132" y=".132" rx="7.923" fill="#fff" stroke="#000" stroke-width=".265"/><path d="M89.958 134.938V127v-5.292h-1.323v3.969l-.794 1.852-1.852-5.821h-1.323l2.381 7.408-2.381 5.821h1.323l2.646-6.35v6.35zm-84.666-127v7.938 5.292h1.323v-3.969l.794-1.852 1.852 5.821h1.323L8.203 13.76l2.381-5.821H9.26l-2.646 6.35v-6.35zm18.521 3.968s1.587 3.969 3.44 6.615 4.498 5.292 4.498 5.292-2.646 2.646-4.498 5.292-3.44 6.615-3.44 6.615-1.587-3.969-3.44-6.615-4.498-5.292-4.498-5.292 2.646-2.646 4.498-5.292 3.44-6.615 3.44-6.615M7.937 23.813s.794 1.984 1.72 3.307 2.249 2.646 2.249 2.646-1.323 1.323-2.249 2.646-1.72 3.307-1.72 3.307-.794-1.984-1.72-3.307-2.249-2.646-2.249-2.646 1.323-1.323 2.249-2.646 1.72-3.307 1.72-3.307m63.5 107.156s-1.588-3.969-3.44-6.615-4.498-5.292-4.498-5.292 2.646-2.646 4.498-5.292 3.44-6.615 3.44-6.615 1.588 3.969 3.44 6.615 4.498 5.292 4.498 5.292-2.646 2.646-4.498 5.292-3.44 6.615-3.44 6.615m15.875-11.906s-.794-1.984-1.72-3.307-2.249-2.646-2.249-2.646 1.323-1.323 2.249-2.646 1.72-3.307 1.72-3.307.794 1.984 1.72 3.307 2.249 2.646 2.249 2.646-1.323 1.323-2.249 2.646-1.72 3.307-1.72 3.307" fill="#f59329"/></svg>