<svg xmlns="http://www.w3.org/2000/svg" width="360" height="540" viewBox="0 0 95.25 142.875"  xmlns:v="https://vecta.io/nano"><rect rx="7.923" y=".132" x=".132" height="142.61" width="94.985" fill="#fff" stroke="#000" stroke-width=".265"/><path d="M40.415 68.064l14.883.132s-.514 2.012-.595 3.043c-.097 1.232.132 3.704.132 3.704l-14.949-.132s.576-2.364.661-3.572c.075-1.056-.132-3.175-.132-3.175zM7.937 7.937a2.646 2.646 0 0 0-2.646 2.646v7.937a2.646 2.646 0 0 0 2.646 2.646 2.678 2.678 0 0 0 .339-.025 2.64 2.64 0 0 0 2.307 1.348v-1.323c-.434 0-.817-.215-1.058-.537a2.63 2.63 0 0 0 1.058-2.108v-7.937a2.646 2.646 0 0 0-2.646-2.646zm0 1.323a1.323 1.323 0 0 1 1.323 1.323v7.937a1.31 1.31 0 0 1-.116.529c-.337-1.073-1.345-1.852-2.53-1.852v-6.615A1.323 1.323 0 0 1 7.938 9.26zm-1.323 9.26a1.323 1.323 0 0 1 1.323 1.323 1.323 1.323 0 0 1-1.323-1.323zm80.698 116.417a2.646 2.646 0 0 0 2.646-2.646v-7.937a2.646 2.646 0 0 0-2.646-2.646 2.65 2.65 0 0 0-.339.025 2.64 2.64 0 0 0-2.307-1.348v1.323c.434 0 .817.215 1.058.537a2.63 2.63 0 0 0-1.058 2.108v7.937a2.646 2.646 0 0 0 2.646 2.646zm0-1.323a1.323 1.323 0 0 1-1.323-1.323v-7.937a1.3 1.3 0 0 1 .116-.529c.337 1.073 1.345 1.852 2.53 1.852v6.615a1.323 1.323 0 0 1-1.323 1.323zm1.323-9.26a1.323 1.323 0 0 1-1.323-1.323 1.323 1.323 0 0 1 1.323 1.323zM25.138 26.718c.525 1.059 1.847 2.653 3.169 2.653 2.381 0 3.441-2.119 3.441-4.762 0-2.653-1.059-5.034-3.441-5.034-1.322 0-2.109 1.331-2.906 2.119-.262.262-.525 0-.262-.262.787-.797 2.119-2.906 2.119-4.762 0-2.119-1.331-4.762-3.441-4.762-2.119 0-3.441 2.644-3.441 4.762 0 1.856 1.322 3.966 2.119 4.762.262.262 0 .525-.272.262-.787-.787-1.584-2.119-2.906-2.119-2.381 0-3.441 2.381-3.441 5.034 0 2.644 1.059 4.762 3.441 4.762 1.322 0 2.644-1.594 3.178-2.653.262-.262.262 0 .262.272l-.534 4.228c-.262 1.594-1.059 4.5-1.059 4.5 1.331-.525 3.975-.525 5.297 0l-1.059-4.5-.525-4.228c0-.272 0-.534.262-.272zM8.6 31.218c.262.534.928 1.322 1.584 1.322 1.191 0 1.725-1.059 1.725-2.381s-.534-2.512-1.725-2.512c-.656 0-1.059.666-1.453 1.059-.131.131-.262 0-.131-.131.394-.394 1.059-1.453 1.059-2.381 0-1.059-.666-2.381-1.725-2.381s-1.716 1.322-1.716 2.381c0 .928.656 1.988 1.059 2.381.131.131 0 .262-.131.131-.403-.394-.797-1.059-1.463-1.059-1.191 0-1.716 1.191-1.716 2.512s.525 2.381 1.716 2.381c.666 0 1.331-.787 1.594-1.322.131-.131.131 0 .131.131l-.262 2.119c-.131.797-.534 2.25-.534 2.25.666-.262 1.988-.262 2.644 0l-.525-2.25-.262-2.119c0-.131 0-.262.131-.131zm61.509 84.938c-.525-1.059-1.847-2.653-3.169-2.653-2.381 0-3.441 2.119-3.441 4.762 0 2.653 1.059 5.034 3.441 5.034 1.322 0 2.109-1.331 2.906-2.119.262-.262.525 0 .262.262-.787.797-2.119 2.906-2.119 4.763 0 2.119 1.331 4.762 3.441 4.762 2.119 0 3.441-2.644 3.441-4.762 0-1.856-1.322-3.966-2.119-4.763-.262-.262 0-.525.272-.262.787.787 1.584 2.119 2.906 2.119 2.381 0 3.441-2.381 3.441-5.034 0-2.644-1.059-4.762-3.441-4.762-1.322 0-2.644 1.594-3.178 2.653-.262.262-.262 0-.262-.272l.534-4.228c.262-1.594 1.059-4.5 1.059-4.5-1.331.525-3.975.525-5.297 0l1.059 4.5.525 4.228c0 .272 0 .534-.262.272zm16.537-4.5c-.262-.534-.928-1.322-1.584-1.322-1.191 0-1.725 1.059-1.725 2.381s.534 2.512 1.725 2.512c.656 0 1.059-.666 1.453-1.059.131-.131.262 0 .131.131-.394.394-1.059 1.453-1.059 2.381 0 1.059.666 2.381 1.725 2.381s1.716-1.322 1.716-2.381c0-.928-.656-1.988-1.059-2.381-.131-.131 0-.262.131-.131.403.394.797 1.059 1.463 1.059 1.191 0 1.716-1.191 1.716-2.512s-.525-2.381-1.716-2.381c-.666 0-1.331.787-1.594 1.322-.131.131-.131 0-.131-.131l.262-2.119c.131-.797.534-2.25.534-2.25-.666.262-1.988.262-2.644 0l.525 2.25.262 2.119c0 .131 0 .262-.131.131z" fill="#00406b"/><path d="M13.239 56.48h73.718v34.342H13.239z" fill="#fff"/></svg>