<svg xmlns="http://www.w3.org/2000/svg" width="360" height="540" viewBox="0 0 95.25 142.875"  xmlns:v="https://vecta.io/nano"><rect rx="7.923" y=".132" x=".132" height="142.61" width="94.985" fill="#fff" stroke="#000" stroke-width=".265"/><path d="M7.937 7.937a2.646 2.646 0 0 0-2.646 2.646v7.937a2.646 2.646 0 0 0 2.646 2.646 2.678 2.678 0 0 0 .339-.025 2.64 2.64 0 0 0 2.307 1.348v-1.323c-.434 0-.817-.215-1.058-.537a2.63 2.63 0 0 0 1.058-2.108v-7.937a2.646 2.646 0 0 0-2.646-2.646zm0 1.323a1.323 1.323 0 0 1 1.323 1.323v7.937a1.31 1.31 0 0 1-.116.529c-.337-1.073-1.345-1.852-2.53-1.852v-6.615A1.323 1.323 0 0 1 7.938 9.26zm-1.323 9.26a1.323 1.323 0 0 1 1.323 1.323 1.323 1.323 0 0 1-1.323-1.323zm80.698 116.417a2.646 2.646 0 0 0 2.646-2.646v-7.937a2.646 2.646 0 0 0-2.646-2.646 2.65 2.65 0 0 0-.339.025 2.64 2.64 0 0 0-2.307-1.348v1.323c.434 0 .817.215 1.058.537a2.63 2.63 0 0 0-1.058 2.108v7.937a2.646 2.646 0 0 0 2.646 2.646zm0-1.323a1.323 1.323 0 0 1-1.323-1.323v-7.937a1.3 1.3 0 0 1 .116-.529c.337 1.073 1.345 1.852 2.53 1.852v6.615a1.323 1.323 0 0 1-1.323 1.323zm1.323-9.26a1.323 1.323 0 0 1-1.323-1.323 1.323 1.323 0 0 1 1.323 1.323zm-80.83-98.16c0-1.461-.756-2.381-1.852-2.381s-1.984 1.185-1.984 2.646a6.57 6.57 0 0 1 0 .372c0 .965.354 1.902.661 2.778.316.901.772 1.691 1.199 2.497l2.108 3.613 2.108-3.613c.427-.806.883-1.596 1.199-2.497.307-.876.661-1.813.661-2.778v-.372c0-1.461-.888-2.646-1.984-2.646s-1.852.92-1.852 2.381c0 .265-.265.265-.265 0zm15.743-9.525c0-2.923-1.512-4.762-3.704-4.762s-3.969 2.369-3.969 5.292v.744c0 1.931.708 3.804 1.323 5.556.632 1.802 1.544 3.382 2.398 4.994l4.217 7.226 4.217-7.226c.854-1.612 1.766-3.192 2.398-4.994.615-1.752 1.323-3.625 1.323-5.556v-.744c0-2.923-1.777-5.292-3.969-5.292s-3.704 1.84-3.704 4.762c0 .529-.529.529-.529 0zm63.897 100.012c0 1.461.756 2.381 1.852 2.381s1.984-1.185 1.984-2.646v-.372c0-.965-.354-1.902-.661-2.778-.316-.901-.772-1.691-1.199-2.497l-2.108-3.613-2.108 3.613c-.427.806-.883 1.596-1.199 2.497-.307.876-.661 1.813-.661 2.778v.372c0 1.461.888 2.646 1.984 2.646s1.852-.92 1.852-2.381c0-.265.265-.265.265 0zm-15.743 9.525c0 2.923 1.512 4.762 3.704 4.762s3.969-2.369 3.969-5.292v-.744c0-1.931-.708-3.804-1.323-5.556-.632-1.802-1.544-3.382-2.398-4.994l-4.217-7.227-4.217 7.227c-.854 1.612-1.766 3.192-2.398 4.994-.615 1.752-1.323 3.625-1.323 5.556v.744c0 2.923 1.777 5.292 3.969 5.292s3.704-1.84 3.704-4.762c0-.529.529-.529.529 0z" fill="#f59328"/></svg>