<svg xmlns="http://www.w3.org/2000/svg" width="360" height="540" viewBox="0 0 95.25 142.875"  xmlns:v="https://vecta.io/nano"><rect rx="7.923" y=".132" x=".132" height="142.61" width="94.985" fill="#fff" stroke="#000" stroke-width=".265"/><path d="M27.034 73.465l3.512-4.175 37.774-.051-3.52 4.26zM7.937 7.937a2.646 2.646 0 0 0-2.646 2.646v7.937a2.646 2.646 0 0 0 2.646 2.646 2.678 2.678 0 0 0 .339-.025 2.64 2.64 0 0 0 2.307 1.348v-1.323c-.434 0-.817-.215-1.058-.537a2.63 2.63 0 0 0 1.058-2.108v-7.937a2.646 2.646 0 0 0-2.646-2.646zm0 1.323a1.323 1.323 0 0 1 1.323 1.323v7.937a1.31 1.31 0 0 1-.116.529c-.337-1.073-1.345-1.852-2.53-1.852v-6.615A1.323 1.323 0 0 1 7.938 9.26zm-1.323 9.26a1.323 1.323 0 0 1 1.323 1.323 1.323 1.323 0 0 1-1.323-1.323zm80.698 116.417a2.646 2.646 0 0 0 2.646-2.646v-7.937a2.646 2.646 0 0 0-2.646-2.646 2.65 2.65 0 0 0-.339.025 2.64 2.64 0 0 0-2.307-1.348v1.323c.434 0 .817.215 1.058.537a2.63 2.63 0 0 0-1.058 2.108v7.937a2.646 2.646 0 0 0 2.646 2.646zm0-1.323a1.323 1.323 0 0 1-1.323-1.323v-7.937a1.3 1.3 0 0 1 .116-.529c.337 1.073 1.345 1.852 2.53 1.852v6.615a1.323 1.323 0 0 1-1.323 1.323zm1.323-9.26a1.323 1.323 0 0 1-1.323-1.323 1.323 1.323 0 0 1 1.323 1.323zm-63.5-97.631c.265 1.058 1.323 3.704 3.175 3.704 2.381 0 3.44-2.117 3.44-4.762 0-1.852-.682-3.072-1.323-4.498-.682-1.518-1.688-2.873-2.646-4.233-1.229-1.746-3.969-5.027-3.969-5.027l-3.969 5.027c-.958 1.361-1.964 2.715-2.646 4.233-.641 1.426-1.323 2.646-1.323 4.498 0 2.646 1.058 4.762 3.44 4.762 1.852 0 2.91-2.646 3.175-3.704.265-.265.265 0 .265.265l-.529 4.233c-.265 1.587-1.058 4.498-1.058 4.498 1.323-.529 3.969-.529 5.292 0L25.4 31.221l-.529-4.233c0-.265 0-.529.265-.265zM8.599 31.221c.132.529.661 1.852 1.587 1.852 1.191 0 1.72-1.058 1.72-2.381 0-.926-.341-1.536-.661-2.249-.341-.759-.844-1.436-1.323-2.117-.615-.873-1.984-2.514-1.984-2.514l-1.984 2.514c-.479.68-.982 1.358-1.323 2.117-.32.713-.661 1.323-.661 2.249 0 1.323.529 2.381 1.72 2.381.926 0 1.455-1.323 1.587-1.852.132-.132.132 0 .132.132l-.265 2.117c-.132.794-.529 2.249-.529 2.249.661-.265 1.984-.265 2.646 0l-.529-2.249-.265-2.117c0-.132 0-.265.132-.132zm61.516 84.931c-.265-1.058-1.323-3.704-3.175-3.704-2.381 0-3.44 2.117-3.44 4.762 0 1.852.682 3.072 1.323 4.498.682 1.518 1.688 2.873 2.646 4.233 1.229 1.746 3.969 5.027 3.969 5.027l3.969-5.027c.958-1.361 1.964-2.715 2.646-4.233.641-1.426 1.323-2.646 1.323-4.498 0-2.646-1.058-4.762-3.44-4.762-1.852 0-2.91 2.646-3.175 3.704-.265.265-.265 0-.265-.265l.529-4.233c.265-1.588 1.058-4.498 1.058-4.498-1.323.529-3.969.529-5.292 0l1.058 4.498.529 4.233c0 .265 0 .529-.265.265zm16.536-4.498c-.132-.529-.661-1.852-1.587-1.852-1.191 0-1.72 1.058-1.72 2.381 0 .926.341 1.536.661 2.249.341.759.844 1.436 1.323 2.117.615.873 1.984 2.514 1.984 2.514l1.984-2.514c.479-.68.982-1.358 1.323-2.117.32-.713.661-1.323.661-2.249 0-1.323-.529-2.381-1.72-2.381-.926 0-1.455 1.323-1.587 1.852-.132.132-.132 0-.132-.132l.265-2.117c.132-.794.529-2.249.529-2.249-.661.265-1.984.265-2.646 0l.529 2.249.265 2.117c0 .132 0 .265-.132.132z" fill="#00406b"/><path d="M12.552 61.142h64.935v18.724H12.552z" fill="#fff"/></svg>