<svg xmlns="http://www.w3.org/2000/svg" width="360" height="540" viewBox="0 0 95.25 142.875"  xmlns:v="https://vecta.io/nano"><rect rx="7.923" y=".132" x=".132" height="142.61" width="94.985" fill="#fff" stroke="#000" stroke-width=".265"/><path d="M7.937 7.937a2.646 2.646 0 0 0-2.646 2.646v7.937a2.646 2.646 0 0 0 2.646 2.646 2.678 2.678 0 0 0 .339-.025 2.64 2.64 0 0 0 2.307 1.348v-1.323c-.434 0-.817-.215-1.058-.537a2.63 2.63 0 0 0 1.058-2.108v-7.937a2.646 2.646 0 0 0-2.646-2.646zm0 1.323a1.323 1.323 0 0 1 1.323 1.323v7.937a1.31 1.31 0 0 1-.116.529c-.337-1.073-1.345-1.852-2.53-1.852v-6.615A1.323 1.323 0 0 1 7.938 9.26zm-1.323 9.26a1.323 1.323 0 0 1 1.323 1.323 1.323 1.323 0 0 1-1.323-1.323zm80.698 116.417a2.646 2.646 0 0 0 2.646-2.646v-7.937a2.646 2.646 0 0 0-2.646-2.646 2.65 2.65 0 0 0-.339.025 2.64 2.64 0 0 0-2.307-1.348v1.323c.434 0 .817.215 1.058.537a2.63 2.63 0 0 0-1.058 2.108v7.937a2.646 2.646 0 0 0 2.646 2.646zm0-1.323a1.323 1.323 0 0 1-1.323-1.323v-7.937a1.3 1.3 0 0 1 .116-.529c.337 1.073 1.345 1.852 2.53 1.852v6.615a1.323 1.323 0 0 1-1.323 1.323zm1.323-9.26a1.323 1.323 0 0 1-1.323-1.323 1.323 1.323 0 0 1 1.323 1.323zM23.812 11.906s1.587 3.969 3.44 6.615 4.498 5.292 4.498 5.292-2.646 2.646-4.498 5.292-3.44 6.615-3.44 6.615-1.587-3.969-3.44-6.615-4.498-5.292-4.498-5.292 2.646-2.646 4.498-5.292 3.44-6.615 3.44-6.615M7.937 23.812s.794 1.984 1.72 3.307 2.249 2.646 2.249 2.646-1.323 1.323-2.249 2.646-1.72 3.307-1.72 3.307-.794-1.984-1.72-3.307-2.249-2.646-2.249-2.646 1.323-1.323 2.249-2.646 1.72-3.307 1.72-3.307m63.5 107.156s-1.587-3.969-3.44-6.615-4.498-5.292-4.498-5.292 2.646-2.646 4.498-5.292 3.44-6.615 3.44-6.615 1.587 3.969 3.44 6.615 4.498 5.292 4.498 5.292-2.646 2.646-4.498 5.292-3.44 6.615-3.44 6.615m15.875-11.906s-.794-1.984-1.72-3.307-2.249-2.646-2.249-2.646 1.323-1.323 2.249-2.646 1.72-3.307 1.72-3.307.794 1.984 1.72 3.307 2.249 2.646 2.249 2.646-1.323 1.323-2.249 2.646-1.72 3.307-1.72 3.307" fill="#f59329"/></svg>