<svg xmlns="http://www.w3.org/2000/svg" xmlns:xlink="http://www.w3.org/1999/xlink" width="360" height="540" viewBox="0 0 95.25 142.875" xmlns:v="https://vecta.io/nano"><rect rx="7.923" y=".132" x=".132" height="142.611" width="94.986" fill="#fff" stroke="#000" stroke-width=".265"/><g fill="#f59329"><path d="M7.276 7.937L4.895 21.166h1.323l.62-3.44h2.199l.62 3.44h1.323L8.599 7.937zm.661 3.679l.86 4.787h-1.72zm78.714 123.321l-2.381-13.229h1.323l.62 3.44h2.199l.62-3.44h1.323l-2.381 13.229zm.661-3.679l.86-4.787h-1.72z"/><use xlink:href="#B"/><use xlink:href="#B" x="79.375" y="83.344"/></g><defs ><path id="B" d="M7.938 23.812s.794 1.984 1.72 3.307 2.249 2.646 2.249 2.646-1.323 1.323-2.249 2.646-1.72 3.307-1.72 3.307-.794-1.984-1.72-3.307-2.249-2.646-2.249-2.646 1.323-1.323 2.249-2.646 1.72-3.307 1.72-3.307"/></defs></svg>