<svg xmlns="http://www.w3.org/2000/svg" width="360" height="540" viewBox="0 0 95.25 142.875"  xmlns:v="https://vecta.io/nano"><rect rx="7.923" y=".132" x=".132" height="142.611" width="94.986" fill="#fff" stroke="#000" stroke-width=".265"/><path d="M7.276 7.937L4.895 21.166h1.323l.62-3.44h2.199l.62 3.44h1.323L8.599 7.937zm.661 3.679l.86 4.787h-1.72zm78.714 123.321l-2.381-13.229h1.323l.62 3.44h2.199l.62-3.44h1.323l-2.381 13.229zm.661-3.679l.86-4.787h-1.72zM8.599 31.22c.265.529.926 1.323 1.588 1.323 1.191 0 1.72-1.058 1.72-2.381s-.529-2.514-1.72-2.514c-.661 0-1.058.661-1.455 1.058-.132.132-.265 0-.132-.132.397-.397 1.058-1.455 1.058-2.381 0-1.058-.661-2.381-1.72-2.381s-1.72 1.323-1.72 2.381c0 .926.661 1.984 1.058 2.381.132.132 0 .265-.132.132-.397-.397-.794-1.058-1.455-1.058-1.191 0-1.72 1.191-1.72 2.514s.529 2.381 1.72 2.381c.661 0 1.323-.794 1.588-1.323.132-.132.132 0 .132.132l-.265 2.117c-.132.794-.529 2.249-.529 2.249.661-.265 1.984-.265 2.646 0l-.529-2.249-.265-2.117c0-.132 0-.265.132-.132zm79.375 80.434c.265-.529.926-1.323 1.588-1.323 1.191 0 1.72 1.058 1.72 2.381s-.529 2.514-1.72 2.514c-.661 0-1.058-.661-1.455-1.058-.132-.132-.265 0-.132.132.397.397 1.058 1.455 1.058 2.381 0 1.058-.661 2.381-1.72 2.381s-1.72-1.323-1.72-2.381c0-.926.661-1.984 1.058-2.381.132-.132 0-.265-.132-.132-.397.397-.794 1.058-1.455 1.058-1.191 0-1.72-1.191-1.72-2.514s.529-2.381 1.72-2.381c.661 0 1.323.794 1.588 1.323.132.132.132 0 .132-.132l-.265-2.117c-.132-.794-.529-2.249-.529-2.249.661.265 1.984.265 2.646 0l-.529 2.249-.265 2.117c0 .132 0 .265.132.132z" fill="#00406b"/></svg>