<?xml version="1.0" encoding="UTF-8" standalone="no"?>
<svg
   xmlns:dc="http://purl.org/dc/elements/1.1/"
   xmlns:cc="http://creativecommons.org/ns#"
   xmlns:rdf="http://www.w3.org/1999/02/22-rdf-syntax-ns#"
   xmlns:svg="http://www.w3.org/2000/svg"
   xmlns="http://www.w3.org/2000/svg"
   xmlns:sodipodi="http://sodipodi.sourceforge.net/DTD/sodipodi-0.dtd"
   xmlns:inkscape="http://www.inkscape.org/namespaces/inkscape"
   width="500"
   height="750"
   viewBox="0 0 132.29167 198.43749"
   version="1.1"
   id="svg10253"
   inkscape:version="1.0.2 (1.0.2+r75+1)"
   sodipodi:docname="ace-of-diamonds.svg">
  <defs
     id="defs10247" />
  <sodipodi:namedview
     id="base"
     pagecolor="#ffffff"
     bordercolor="#666666"
     borderopacity="1.0"
     inkscape:pageopacity="0.0"
     inkscape:pageshadow="2"
     inkscape:zoom="0.35"
     inkscape:cx="652.07534"
     inkscape:cy="618.81333"
     inkscape:document-units="px"
     inkscape:current-layer="layer1"
     inkscape:document-rotation="0"
     showgrid="false"
     inkscape:window-width="1514"
     inkscape:window-height="752"
     inkscape:window-x="406"
     inkscape:window-y="199"
     inkscape:window-maximized="0"
     units="px" />
  <metadata
     id="metadata10250">
    <rdf:RDF>
      <cc:Work
         rdf:about="">
        <dc:format>image/svg+xml</dc:format>
        <dc:type
           rdf:resource="http://purl.org/dc/dcmitype/StillImage" />
        <dc:title />
      </cc:Work>
    </rdf:RDF>
  </metadata>
  <g
     inkscape:label="Layer 1"
     inkscape:groupmode="layer"
     id="layer1">
    <rect
       rx="11.003891"
       ry="11.003891"
       y="0.18373935"
       x="0.18373843"
       height="198.07002"
       width="131.92419"
       id="rect6472-38"
       style="fill:#ffffff;stroke:#000000;stroke-width:0.367477" />
    <path
       inkscape:connector-curvature="0"
       id="path3497-2"
       d="M 10.105613,11.024305 6.7983217,29.398148 H 8.635706 l 0.8612738,-4.777199 h 3.0546512 l 0.861274,4.777199 h 1.837384 L 11.942998,11.024305 Z m 0.918693,5.110225 1.194299,6.649035 H 9.8300057 Z"
       style="fill:#ff5555;stroke:none;stroke-width:0.367477" />
    <path
       inkscape:connector-curvature="0"
       id="path3497-5-6"
       d="m 120.34867,187.4132 -3.30729,-18.37386 h 1.83738 l 0.86127,4.7772 h 3.05466 l 0.86127,-4.7772 h 1.83738 l -3.30729,18.37386 z m 0.91869,-5.11024 1.1943,-6.64903 h -2.3886 z"
       style="fill:#ff5555;stroke:none;stroke-width:0.367477" />
    <path
       sodipodi:nodetypes="czczczczc"
       inkscape:connector-curvature="0"
       id="path3204-24-1-57"
       d="m 11.024306,33.072916 c 0,0 1.10243,2.756077 2.388599,4.593461 1.286169,1.837384 3.123553,3.674769 3.123553,3.674769 0,0 -1.837384,1.837384 -3.123553,3.674768 -1.286169,1.837384 -2.388599,4.593461 -2.388599,4.593461 0,0 -1.102431,-2.756077 -2.3886,-4.593461 -1.286169,-1.837384 -3.1235533,-3.674768 -3.1235533,-3.674768 0,0 1.8373843,-1.837385 3.1235533,-3.674769 1.286169,-1.837384 2.3886,-4.593461 2.3886,-4.593461"
       style="fill:#ff5555;stroke:none;stroke-width:0.367477" />
    <path
       sodipodi:nodetypes="czczczczc"
       inkscape:connector-curvature="0"
       id="path3204-24-1-7"
       d="m 121.26736,148.82812 c 0,0 1.10243,2.75608 2.3886,4.59346 1.28617,1.83739 3.12355,3.67477 3.12355,3.67477 0,0 -1.83738,1.83739 -3.12355,3.67477 -1.28617,1.83739 -2.3886,4.59346 -2.3886,4.59346 0,0 -1.10243,-2.75607 -2.3886,-4.59346 -1.28617,-1.83738 -3.12355,-3.67477 -3.12355,-3.67477 0,0 1.83738,-1.83738 3.12355,-3.67477 1.28617,-1.83738 2.3886,-4.59346 2.3886,-4.59346"
       style="fill:#ff5555;stroke:none;stroke-width:0.367477" />
  </g>
</svg>
