<?xml version="1.0" encoding="UTF-8" standalone="no"?>
<svg
   xmlns:dc="http://purl.org/dc/elements/1.1/"
   xmlns:cc="http://creativecommons.org/ns#"
   xmlns:rdf="http://www.w3.org/1999/02/22-rdf-syntax-ns#"
   xmlns:svg="http://www.w3.org/2000/svg"
   xmlns="http://www.w3.org/2000/svg"
   xmlns:sodipodi="http://sodipodi.sourceforge.net/DTD/sodipodi-0.dtd"
   xmlns:inkscape="http://www.inkscape.org/namespaces/inkscape"
   width="500"
   height="750"
   viewBox="0 0 132.29167 198.43749"
   version="1.1"
   id="svg10253"
   inkscape:version="1.0.2 (1.0.2+r75+1)"
   sodipodi:docname="ace-of-clubs.svg">
  <defs
     id="defs10247" />
  <sodipodi:namedview
     id="base"
     pagecolor="#ffffff"
     bordercolor="#666666"
     borderopacity="1.0"
     inkscape:pageopacity="0.0"
     inkscape:pageshadow="2"
     inkscape:zoom="0.35"
     inkscape:cx="652.07534"
     inkscape:cy="618.81333"
     inkscape:document-units="px"
     inkscape:current-layer="layer1"
     inkscape:document-rotation="0"
     showgrid="false"
     inkscape:window-width="1514"
     inkscape:window-height="752"
     inkscape:window-x="406"
     inkscape:window-y="164"
     inkscape:window-maximized="0"
     units="px" />
  <metadata
     id="metadata10250">
    <rdf:RDF>
      <cc:Work
         rdf:about="">
        <dc:format>image/svg+xml</dc:format>
        <dc:type
           rdf:resource="http://purl.org/dc/dcmitype/StillImage" />
        <dc:title />
      </cc:Work>
    </rdf:RDF>
  </metadata>
  <g
     inkscape:label="Layer 1"
     inkscape:groupmode="layer"
     id="layer1">
    <rect
       rx="11.003891"
       ry="11.003891"
       y="0.18374935"
       x="0.18373843"
       height="198.07002"
       width="131.92419"
       id="rect6472-54"
       style="fill:#ffffff;stroke:#000000;stroke-width:0.367477" />
    <path
       inkscape:connector-curvature="0"
       id="path3497"
       d="M 10.105613,11.024315 6.7983217,29.398158 H 8.635706 l 0.8612738,-4.777199 h 3.0546512 l 0.861274,4.777199 h 1.837384 L 11.942998,11.024315 Z m 0.918693,5.110225 1.194299,6.649035 H 9.8300057 Z"
       style="fill:#000000;stroke:none;stroke-width:0.367477" />
    <path
       inkscape:connector-curvature="0"
       id="path3497-5"
       d="m 120.34867,187.41321 -3.30729,-18.37386 h 1.83738 l 0.86127,4.7772 h 3.05466 l 0.86127,-4.7772 h 1.83738 l -3.30729,18.37386 z m 0.91869,-5.11024 1.1943,-6.64903 h -2.3886 z"
       style="fill:#000000;stroke:none;stroke-width:0.367477" />
    <path
       sodipodi:nodetypes="csssccsssccsssccsccscc"
       inkscape:connector-curvature="0"
       id="path3037-1-6"
       d="m 11.942998,43.362278 c 0.367476,0.734954 1.286169,1.837385 2.204861,1.837385 1.653646,0 2.388599,-1.469908 2.388599,-3.307292 0,-1.837384 -0.734953,-3.49103 -2.388599,-3.49103 -0.918692,0 -1.469908,0.918692 -2.021123,1.469907 -0.183738,0.183739 -0.367477,0 -0.183738,-0.183738 0.551215,-0.551216 1.469907,-2.021123 1.469907,-3.307292 0,-1.469907 -0.918692,-3.307292 -2.388599,-3.307292 -1.4699079,0 -2.3886,1.837385 -2.3886,3.307292 0,1.286169 0.9186921,2.756076 1.469907,3.307292 0.183739,0.183738 0,0.367477 -0.183738,0.183738 -0.5512153,-0.551215 -1.1024306,-1.469907 -2.0211227,-1.469907 -1.6536458,0 -2.3885996,1.653646 -2.3885996,3.49103 0,1.837384 0.7349538,3.307292 2.3885996,3.307292 0.9186921,0 1.8373842,-1.102431 2.2048607,-1.837385 0.183739,-0.183738 0.183739,0 0.183739,0.183739 -0.183739,1.469907 -0.183739,1.837384 -0.367477,2.939814 -0.1837385,1.102431 -0.7349537,3.123554 -0.7349537,3.123554 0.9186917,-0.367477 2.7560767,-0.367477 3.6747687,0 0,0 -0.551216,-2.021123 -0.734954,-3.123554 -0.183738,-1.10243 -0.183738,-1.469907 -0.367477,-2.939814 0,-0.183739 0,-0.367477 0.183739,-0.183739 z"
       style="fill:#000000;fill-opacity:1;stroke:none;stroke-width:0.367477" />
    <path
       sodipodi:nodetypes="csssccsssccsssccsccscc"
       inkscape:connector-curvature="0"
       id="path3037-1-7-4"
       d="m 122.18605,155.07524 c 0.36748,-0.73495 1.28617,-1.83738 2.20486,-1.83738 1.65365,0 2.3886,1.4699 2.3886,3.30729 0,1.83738 -0.73495,3.49103 -2.3886,3.49103 -0.91869,0 -1.4699,-0.91869 -2.02112,-1.46991 -0.18374,-0.18374 -0.36748,0 -0.18374,0.18374 0.55122,0.55121 1.46991,2.02112 1.46991,3.30729 0,1.46991 -0.91869,3.30729 -2.3886,3.30729 -1.46991,0 -2.3886,-1.83738 -2.3886,-3.30729 0,-1.28617 0.91869,-2.75608 1.46991,-3.30729 0.18374,-0.18374 0,-0.36748 -0.18374,-0.18374 -0.55122,0.55122 -1.10243,1.46991 -2.02112,1.46991 -1.65365,0 -2.3886,-1.65365 -2.3886,-3.49103 0,-1.83739 0.73495,-3.30729 2.3886,-3.30729 0.91869,0 1.83738,1.10243 2.20486,1.83738 0.18374,0.18374 0.18374,0 0.18374,-0.18374 -0.18374,-1.46991 -0.18374,-1.83738 -0.36748,-2.93981 -0.18374,-1.10243 -0.73495,-3.12356 -0.73495,-3.12356 0.91869,0.36748 2.75607,0.36748 3.67476,0 0,0 -0.55121,2.02113 -0.73495,3.12356 -0.18374,1.10243 -0.18374,1.4699 -0.36748,2.93981 0,0.18374 0,0.36748 0.18374,0.18374 z"
       style="fill:#000000;fill-opacity:1;stroke:none;stroke-width:0.367477" />
  </g>
</svg>
