<?xml version="1.0" encoding="UTF-8" standalone="no"?>
<svg
   xmlns:dc="http://purl.org/dc/elements/1.1/"
   xmlns:cc="http://creativecommons.org/ns#"
   xmlns:rdf="http://www.w3.org/1999/02/22-rdf-syntax-ns#"
   xmlns:svg="http://www.w3.org/2000/svg"
   xmlns="http://www.w3.org/2000/svg"
   xmlns:sodipodi="http://sodipodi.sourceforge.net/DTD/sodipodi-0.dtd"
   xmlns:inkscape="http://www.inkscape.org/namespaces/inkscape"
   width="500"
   height="750"
   viewBox="0 0 132.29167 198.43749"
   version="1.1"
   id="svg10253"
   inkscape:version="1.0.2 (1.0.2+r75+1)"
   sodipodi:docname="ace-of-hearts.svg">
  <defs
     id="defs10247" />
  <sodipodi:namedview
     id="base"
     pagecolor="#ffffff"
     bordercolor="#666666"
     borderopacity="1.0"
     inkscape:pageopacity="0.0"
     inkscape:pageshadow="2"
     inkscape:zoom="0.35"
     inkscape:cx="652.07534"
     inkscape:cy="618.81333"
     inkscape:document-units="px"
     inkscape:current-layer="layer1"
     inkscape:document-rotation="0"
     showgrid="false"
     inkscape:window-width="1848"
     inkscape:window-height="1016"
     inkscape:window-x="72"
     inkscape:window-y="27"
     inkscape:window-maximized="1"
     units="px" />
  <metadata
     id="metadata10250">
    <rdf:RDF>
      <cc:Work
         rdf:about="">
        <dc:format>image/svg+xml</dc:format>
        <dc:type
           rdf:resource="http://purl.org/dc/dcmitype/StillImage" />
        <dc:title />
      </cc:Work>
    </rdf:RDF>
  </metadata>
  <g
     inkscape:label="Layer 1"
     inkscape:groupmode="layer"
     id="layer1">
    <rect
       rx="11.003891"
       ry="11.003891"
       y="0.18373935"
       x="0.18373843"
       height="198.07002"
       width="131.92419"
       id="rect6472-070"
       style="fill:#ffffff;stroke:#000000;stroke-width:0.367477" />
    <path
       inkscape:connector-curvature="0"
       id="path3497-6"
       d="M 10.105613,11.024305 6.7983217,29.398148 H 8.635706 l 0.8612738,-4.777199 h 3.0546512 l 0.861274,4.777199 h 1.837384 L 11.942998,11.024305 Z m 0.918693,5.110225 1.194299,6.649035 H 9.8300057 Z"
       style="fill:#ff5555;stroke:none;stroke-width:0.367477" />
    <path
       inkscape:connector-curvature="0"
       id="path3497-5-0"
       d="m 120.34867,187.4132 -3.30729,-18.37386 h 1.83738 l 0.86127,4.7772 h 3.05466 l 0.86127,-4.7772 h 1.83738 l -3.30729,18.37386 z m 0.91869,-5.11024 1.1943,-6.64903 h -2.3886 z"
       style="fill:#ff5555;stroke:none;stroke-width:0.367477" />
    <path
       sodipodi:nodetypes="csccsscssccscc"
       inkscape:connector-curvature="0"
       id="path3126-1-5"
       d="m 10.840567,36.380208 c 0,-2.029519 -1.0501992,-3.307292 -2.5723379,-3.307292 -1.5221387,0 -2.7560764,1.645249 -2.7560764,3.674769 0.00641,0.17558 0.00334,0.347482 0,0.516764 0,1.341012 0.4918403,2.641578 0.9186922,3.858507 0.4389566,1.251435 1.0718509,2.348302 1.6651295,3.468063 0.9189181,1.73438 2.9283316,5.018356 2.9283316,5.018356 0,0 2.009413,-3.283976 2.928331,-5.018356 0.593278,-1.119761 1.226173,-2.216628 1.665129,-3.468063 0.426852,-1.216929 0.918692,-2.517495 0.918692,-3.858507 -0.0052,-0.179034 -0.0034,-0.351789 0,-0.516764 0,-2.02952 -1.233937,-3.674769 -2.756076,-3.674769 -1.522139,0 -2.572338,1.277773 -2.572338,3.307292 0,0.367477 -0.367477,0.367477 -0.367477,0 z"
       style="fill:#ff5555;fill-opacity:1;stroke:none;stroke-width:0.367477" />
    <path
       sodipodi:nodetypes="csccsscssccscc"
       inkscape:connector-curvature="0"
       id="path3126-1-7-67"
       d="m 121.08362,162.05729 c 0,2.02952 -1.0502,3.30729 -2.57234,3.30729 -1.52214,0 -2.75607,-1.64525 -2.75607,-3.67477 0.006,-0.17558 0.003,-0.34748 0,-0.51676 0,-1.34101 0.49184,-2.64158 0.91869,-3.85851 0.43896,-1.25143 1.07185,-2.3483 1.66513,-3.46806 0.91892,-1.73438 2.92833,-5.01836 2.92833,-5.01836 0,0 2.00942,3.28398 2.92833,5.01836 0.59328,1.11976 1.22617,2.21663 1.66513,3.46806 0.42685,1.21693 0.91869,2.5175 0.91869,3.85851 -0.005,0.17903 -0.003,0.35179 0,0.51676 0,2.02952 -1.23394,3.67477 -2.75607,3.67477 -1.52214,0 -2.57234,-1.27777 -2.57234,-3.30729 0,-0.36748 -0.36748,-0.36748 -0.36748,0 z"
       style="fill:#ff5555;fill-opacity:1;stroke:none;stroke-width:0.367477" />
  </g>
</svg>
