<svg xmlns="http://www.w3.org/2000/svg" width="360" height="540" viewBox="0 0 95.25 142.875"  xmlns:v="https://vecta.io/nano"><rect rx="7.923" y=".132" x=".132" height="142.61" width="94.985" fill="#fff" stroke="#000" stroke-width=".265"/><g fill="#00406b"><path d="M89.958 134.938V127v-5.292h-1.323v3.969l-.794 1.852-1.852-5.821h-1.323l2.381 7.408-2.381 5.821h1.323l2.646-6.35v6.35zm-84.666-127v7.938 5.292h1.323v-3.969l.794-1.852 1.852 5.821h1.323L8.203 13.76l2.381-5.821H9.26l-2.646 6.35v-6.35zm19.845 18.781c.525 1.059 1.847 2.653 3.169 2.653 2.381 0 3.441-2.119 3.441-4.762 0-2.653-1.059-5.034-3.441-5.034-1.322 0-2.109 1.331-2.906 2.119-.262.262-.525 0-.262-.262.787-.797 2.119-2.906 2.119-4.762 0-2.119-1.331-4.762-3.441-4.762-2.119 0-3.441 2.644-3.441 4.762 0 1.856 1.322 3.966 2.119 4.762.262.262 0 .525-.272.262-.787-.787-1.584-2.119-2.906-2.119-2.381 0-3.441 2.381-3.441 5.034 0 2.644 1.059 4.762 3.441 4.762 1.322 0 2.644-1.594 3.178-2.653.262-.262.262 0 .262.272l-.534 4.228c-.262 1.594-1.059 4.5-1.059 4.5 1.331-.525 3.975-.525 5.297 0l-1.059-4.5-.525-4.228c0-.272 0-.534.262-.272zM8.6 31.219c.262.534.928 1.322 1.584 1.322 1.191 0 1.725-1.059 1.725-2.381s-.534-2.512-1.725-2.512c-.656 0-1.059.666-1.453 1.059-.131.131-.262 0-.131-.131.394-.394 1.059-1.453 1.059-2.381 0-1.059-.666-2.381-1.725-2.381s-1.716 1.322-1.716 2.381c0 .928.656 1.987 1.059 2.381.131.131 0 .262-.131.131-.403-.394-.797-1.059-1.462-1.059-1.191 0-1.716 1.191-1.716 2.512s.525 2.381 1.716 2.381c.666 0 1.331-.787 1.594-1.322.131-.131.131 0 .131.131l-.262 2.119c-.131.797-.534 2.25-.534 2.25.666-.262 1.987-.262 2.644 0l-.525-2.25-.262-2.119c0-.131 0-.262.131-.131z"/><path d="M80.008 55.984c1.984 4.004 6.98 10.028 11.976 10.028 9 0 13.004-8.008 13.004-18 0-10.028-4.004-19.028-13.004-19.028-4.996 0-7.972 5.031-10.984 8.008-.992.992-1.984 0-.992-.992 2.976-3.012 8.008-10.984 8.008-18 0-8.008-5.031-18-13.004-18-8.008 0-13.004 9.992-13.004 18 0 7.016 4.996 14.988 8.008 18 .992.992 0 1.984-1.028.992-2.976-2.976-5.988-8.008-10.984-8.008-9 0-13.004 9-13.004 19.028 0 9.992 4.004 18 13.004 18 4.996 0 9.992-6.024 12.012-10.028.992-.992.992 0 .992 1.028-.992 7.972-.992 9.992-2.02 15.98C67.996 79.016 64.984 90 64.984 90c5.031-1.984 15.024-1.984 20.02 0 0 0-3.012-10.984-4.004-17.008-.992-5.988-.992-8.008-1.984-15.98 0-1.028 0-2.02.992-1.028zM17.504 72.992c.992 2.02 3.508 4.996 5.988 4.996 4.5 0 6.52-4.004 6.52-9s-2.02-9.496-6.52-9.496c-2.48 0-4.004 2.516-5.492 4.004-.496.496-.992 0-.496-.496 1.488-1.488 4.004-5.492 4.004-9 0-4.004-2.516-9-6.52-9s-6.484 4.996-6.484 9c0 3.508 2.48 7.512 4.004 9 .496.496 0 .992-.496.496-1.524-1.488-3.012-4.004-5.528-4.004-4.5 0-6.484 4.5-6.484 9.496s1.984 9 6.484 9c2.516 0 5.031-2.976 6.024-4.996.496-.496.496 0 .496.496-.496 4.004-.496 4.996-.992 8.008S9.992 90 9.992 90c2.516-.992 7.512-.992 9.992 0 0 0-1.488-5.492-1.984-8.504s-.496-4.004-.992-8.008c0-.496 0-.992.496-.496z" transform="matrix(-.264583 0 0 -.264583 91.278121 130.96876)"/></g></svg>